<!DOCTYPE svg PUBLIC "-//W3C//DTD SVG 1.1//EN" "http://www.w3.org/Graphics/SVG/1.1/DTD/svg11.dtd">
<!-- Uploaded to: SVG Repo, www.svgrepo.com, Transformed by: SVG Repo Mixer Tools -->
<svg height="800px" width="800px" version="1.1" id="Layer_1" xmlns="http://www.w3.org/2000/svg" xmlns:xlink="http://www.w3.org/1999/xlink" viewBox="0 0 503.607 503.607" xml:space="preserve" fill="#000000">
<g id="SVGRepo_bgCarrier" stroke-width="0"/>
<g id="SVGRepo_tracerCarrier" stroke-linecap="round" stroke-linejoin="round"/>
<g id="SVGRepo_iconCarrier"> <g transform="translate(1 1)"> <path style="fill:#ffffff;" d="M359.918,154.279c0,60.433-48.682,109.115-109.115,109.115s-109.115-48.682-109.115-109.115 S190.37,45.164,250.803,45.164S359.918,93.846,359.918,154.279"/> <g> <path style="fill:#ffffff;" d="M334.738,154.279c0,60.433-42.807,109.115-96.525,109.115s-96.525-48.682-96.525-109.115 s43.646-109.115,96.525-109.115S334.738,93.846,334.738,154.279"/> <path style="fill:#ffffff;" d="M7.393,413.636v-99.043c0-5.036,4.197-9.233,10.072-9.233h57.075v117.508H17.466 C11.59,422.869,7.393,418.672,7.393,413.636"/> <path style="fill:#ffffff;" d="M376.705,447.21V281.02c0-5.036,4.197-9.233,9.233-9.233h31.056c5.036,0,9.233,4.197,9.233,9.233 V446.37c0,5.036-4.197,9.233-9.233,9.233h-31.056C380.902,456.443,376.705,452.246,376.705,447.21"/> <path style="fill:#ffffff;" d="M74.541,447.21V281.02c0-5.036,4.197-9.233,10.072-9.233h31.056c5.036,0,9.233,4.197,9.233,9.233 V446.37c0,5.036-4.197,9.233-9.233,9.233H84.613C78.738,456.443,74.541,452.246,74.541,447.21"/> </g> <path style="fill:#ffffff;" d="M427.066,422.869V305.361h57.915c5.036,0,9.233,4.197,9.233,9.233v98.203 c0,5.036-4.197,9.233-9.233,9.233h-57.915V422.869z"/> <path style="fill:#ffffff;" d="M427.066,422.869V305.361H459.8c5.036,0,9.233,4.197,9.233,9.233v98.203 c0,5.036-4.197,9.233-9.233,9.233h-32.734V422.869z"/> <polygon style="fill:#ffffff;" points="124.902,422.869 376.705,422.869 376.705,305.361 124.902,305.361 "/> <polygon style="fill:#ffffff;" points="124.902,422.869 351.525,422.869 351.525,305.361 124.902,305.361 "/> <path d="M74.541,431.262H17.466C7.393,431.262-1,422.869-1,413.636v-99.043c0-9.233,8.393-17.626,18.466-17.626h57.075 c5.036,0,8.393,3.357,8.393,8.393v117.508C82.934,427.905,79.577,431.262,74.541,431.262z M17.466,313.754 c-0.839,0-1.679,0.839-1.679,0.839v98.203c0,0.839,0.839,1.679,1.679,1.679h48.682V313.754H17.466z"/> <path d="M376.705,431.262H124.902c-5.036,0-8.393-3.357-8.393-8.393V305.361c0-5.036,3.357-8.393,8.393-8.393h251.803 c5.036,0,8.393,3.357,8.393,8.393v117.508C385.098,427.905,381.741,431.262,376.705,431.262z M133.295,414.475h235.016V313.754 H133.295V414.475z"/> <path d="M484.98,431.262h-57.915c-5.036,0-8.393-3.357-8.393-8.393V305.361c0-5.036,3.357-8.393,8.393-8.393h57.915 c10.072,0,17.626,8.393,17.626,17.626v98.203C502.607,422.869,495.052,431.262,484.98,431.262z M435.459,414.475h49.521 c0.839,0,0.839-0.839,0.839-0.839v-99.043c0-0.839-0.839-0.839-0.839-0.839h-49.521V414.475z"/> <path d="M417.833,464.836h-31.056c-10.072,0-18.466-8.393-18.466-17.626V281.02c0-10.072,8.393-17.626,17.626-17.626h31.056 c10.072,0,17.626,8.393,17.626,17.626V446.37C435.459,456.443,427.905,464.836,417.833,464.836z M386.777,280.18 c-0.839,0-0.839,0.839-0.839,0.839V446.37c0,0.839,0.839,0.839,0.839,0.839h31.056c0.839,0,0.839-0.839,0.839-0.839V281.02 c0-0.839-0.839-0.839-0.839-0.839H386.777z"/> <path d="M115.669,464.836H84.613c-10.072,0-18.466-8.393-18.466-17.626V281.02c0-9.233,8.393-17.626,18.466-17.626h31.056 c10.072,0,17.626,8.393,17.626,17.626V446.37C133.295,456.443,125.741,464.836,115.669,464.836z M84.613,280.18 c-0.839,0-1.679,0.839-1.679,0.839V446.37c0,0.839,0.839,1.679,1.679,1.679h31.056c0.839,0,0.839-0.839,0.839-0.839V281.02 c0-0.839-0.839-0.839-0.839-0.839H84.613z"/> <path d="M250.803,271.787c-64.63,0-117.508-52.879-117.508-117.508S186.174,36.77,250.803,36.77s117.508,52.879,117.508,117.508 S315.433,271.787,250.803,271.787z M250.803,53.557c-55.397,0-100.721,45.325-100.721,100.721S195.407,255,250.803,255 s100.721-45.325,100.721-100.721S306.2,53.557,250.803,53.557z"/> <path d="M250.803,179.459c-14.269,0-25.18-10.911-25.18-25.18c0-14.269,10.911-25.18,25.18-25.18 c14.269,0,25.18,10.911,25.18,25.18C275.984,168.548,265.072,179.459,250.803,179.459z M250.803,145.885 c-5.036,0-8.393,3.357-8.393,8.393c0,5.036,3.357,8.393,8.393,8.393s8.393-3.357,8.393-8.393 C259.197,149.243,255.839,145.885,250.803,145.885z"/> <path d="M250.803,145.885c-5.036,0-8.393-3.357-8.393-8.393v-33.574c0-5.036,3.357-8.393,8.393-8.393s8.393,3.357,8.393,8.393 v33.574C259.197,142.528,255.839,145.885,250.803,145.885z"/> <path d="M183.656,162.672h-41.967c-5.036,0-8.393-3.357-8.393-8.393c0-5.036,3.357-8.393,8.393-8.393h41.967 c5.036,0,8.393,3.357,8.393,8.393C192.049,159.315,188.692,162.672,183.656,162.672z"/> <path d="M359.918,162.672h-41.967c-5.036,0-8.393-3.357-8.393-8.393c0-5.036,3.357-8.393,8.393-8.393h41.967 c5.036,0,8.393,3.357,8.393,8.393C368.311,159.315,364.954,162.672,359.918,162.672z"/> <path d="M250.803,271.787c-5.036,0-8.393-3.357-8.393-8.393v-41.967c0-5.036,3.357-8.393,8.393-8.393s8.393,3.357,8.393,8.393 v41.967C259.197,268.43,255.839,271.787,250.803,271.787z"/> <path d="M317.951,313.754L317.951,313.754H183.656c-2.518,0-5.036-1.679-6.715-3.357c-1.679-2.518-1.679-5.036-0.839-8.393 l20.144-52.879c0.839-2.518,2.518-4.197,5.036-5.036s5.036-0.839,6.715,0c27.698,13.43,59.593,13.43,87.292,0 c2.518-0.839,4.197-0.839,6.715,0c2.518,0.839,4.197,2.518,5.036,5.036l19.305,51.2c0,1.679,0,3.357,0,5.036 C326.344,310.397,322.987,313.754,317.951,313.754z M196.246,296.967H306.2l-12.59-33.574c-27.698,10.911-57.915,10.911-84.774,0 L196.246,296.967z"/> </g> </g>
</svg>