<?xml version="1.0" encoding="iso-8859-1"?>
<!-- Uploaded to: SVG Repo, www.svgrepo.com, Generator: SVG Repo Mixer Tools -->
<svg fill="#000000" height="800px" width="800px" version="1.1" id="Layer_1" xmlns="http://www.w3.org/2000/svg" xmlns:xlink="http://www.w3.org/1999/xlink" 
	 viewBox="0 0 512 512" xml:space="preserve">
<g>
	<g>
		<g>
			<path d="M375.466,136.533c-40.597,0-76.457,20.252-98.045,51.2h-89.69v-51.2h15.935c10.048,0,18.202-8.149,18.202-18.202V86.468
				c0-10.053-8.154-18.202-18.202-18.202h-15.933V18.202C187.732,8.147,179.586,0,169.531,0H69.401
				C59.346,0,51.199,8.147,51.199,18.202v50.065h-15.93c-10.055,0-18.202,8.147-18.202,18.202v31.863
				c0,10.055,8.147,18.202,18.202,18.202h15.928v238.933H35.269c-10.055,0-18.202,8.147-18.202,18.202v31.863
				c0,10.055,8.147,18.202,18.202,18.202h15.932v50.065c0,10.055,8.147,18.202,18.202,18.202h100.13
				c10.048,0,18.202-8.149,18.202-18.202v-50.065h15.932c10.048,0,18.202-8.149,18.202-18.202v-31.863
				c0-10.053-8.154-18.202-18.202-18.202h-15.935v-51.2h89.69c21.588,30.948,57.448,51.2,98.045,51.2
				c65.982,0,119.467-53.484,119.467-119.467S441.448,136.533,375.466,136.533z M68.266,18.202c0-0.629,0.506-1.135,1.135-1.135
				h100.13c0.629,0,1.135,0.506,1.135,1.135v50.065h-102.4V18.202z M34.134,118.332V86.468c0-0.629,0.506-1.135,1.135-1.135h24.463
				h119.467h24.467c0.625,0,1.135,0.51,1.135,1.135v31.863c0,0.625-0.51,1.135-1.135,1.135h-24.469H59.731H35.269
				C34.64,119.467,34.134,118.961,34.134,118.332z M170.668,493.798c0,0.625-0.51,1.135-1.135,1.135H69.402
				c-0.629,0-1.135-0.506-1.135-1.135v-50.065h102.4V493.798z M204.801,393.668v31.863c0,0.625-0.51,1.135-1.135,1.135h-24.465
				H59.734H35.269c-0.629,0-1.135-0.506-1.135-1.135v-31.863c0-0.629,0.506-1.135,1.135-1.135h24.462h119.467h24.469
				C204.291,392.533,204.801,393.043,204.801,393.668z M68.264,375.467V136.533h102.4v238.933H68.264z M187.732,307.2V204.8h79.769
				c-5.979,12.587-9.82,26.385-11.058,40.927c-0.01,0.12-0.022,0.239-0.032,0.358c-0.074,0.905-0.137,1.814-0.191,2.725
				c-0.013,0.212-0.029,0.424-0.04,0.636c-0.046,0.852-0.08,1.707-0.108,2.563c-0.008,0.245-0.021,0.49-0.028,0.735
				c-0.029,1.082-0.046,2.167-0.046,3.255s0.017,2.174,0.046,3.255c0.007,0.245,0.02,0.49,0.028,0.735
				c0.028,0.856,0.062,1.711,0.108,2.563c0.012,0.212,0.028,0.424,0.04,0.636c0.054,0.911,0.117,1.82,0.191,2.725
				c0.01,0.12,0.022,0.239,0.032,0.359c1.239,14.542,5.079,28.34,11.058,40.926H187.732z M375.466,358.4
				c-35.812,0-67.323-18.386-85.625-46.229c-0.164-0.352-0.352-0.701-0.571-1.042c-9.197-14.349-14.693-30.623-15.933-47.691
				c-0.006-0.085-0.01-0.171-0.016-0.257c-0.071-1.01-0.123-2.023-0.164-3.039c-0.011-0.267-0.022-0.533-0.03-0.801
				c-0.036-1.111-0.06-2.224-0.06-3.341s0.024-2.23,0.06-3.341c0.009-0.267,0.02-0.534,0.03-0.801
				c0.041-1.015,0.093-2.029,0.164-3.039c0.006-0.085,0.01-0.171,0.016-0.257c1.24-17.068,6.736-33.342,15.933-47.691
				c0.219-0.342,0.407-0.69,0.571-1.042c18.302-27.843,49.813-46.229,85.625-46.229c56.557,0,102.4,45.843,102.4,102.4
				S432.022,358.4,375.466,358.4z"/>
			<path d="M375.466,179.2c-42.413,0-76.8,34.387-76.8,76.8s34.387,76.8,76.8,76.8s76.8-34.387,76.8-76.8
				S417.879,179.2,375.466,179.2z M435.199,256c0,9.201-2.085,17.914-5.802,25.699l-21.699-14.466
				c1.226-3.519,1.901-7.296,1.901-11.233c0-15.906-10.877-29.269-25.6-33.058v-26.058C412.943,201.026,435.199,225.911,435.199,256
				z M358.399,256c0-9.427,7.64-17.067,17.067-17.067c9.427,0,17.067,7.64,17.067,17.067c0,9.427-7.64,17.067-17.067,17.067
				C366.039,273.067,358.399,265.427,358.399,256z M366.932,196.883v26.058c-14.723,3.789-25.6,17.152-25.6,33.058
				c0,3.937,0.674,7.714,1.901,11.233l-21.699,14.466c-3.717-7.785-5.802-16.498-5.802-25.699
				C315.732,225.911,337.988,201.026,366.932,196.883z M375.466,315.733c-17.654,0-33.515-7.666-44.451-19.844l21.689-14.459
				c6.04,5.41,14.015,8.703,22.762,8.703s16.722-3.293,22.762-8.703l21.689,14.459C408.981,308.068,393.12,315.733,375.466,315.733z
				"/>
		</g>
	</g>
</g>
</svg>